<?xml version="1.0" encoding="UTF-8"?>
<svg xmlns="http://www.w3.org/2000/svg" width="182.061" height="51.848" xml:space="preserve">
  <switch>
    <g>
      <path fill="#009BDC" d="M5.292 10.704h1.626c2.591 0 2.969-2.1 2.969-3.367 0-.85-.265-3.214-3.271-3.214H5.292v6.581zM1.132.662h6.827c4.5 0 6.089 3.328 6.089 6.732 0 4.142-2.194 6.771-6.904 6.771H1.132V.662zM15.106 4.35h3.745v9.814h-3.745V4.35zm3.746-1.059h-3.745V.662h3.745v2.629zM26.492 9.758c-.455.227-.964.36-1.476.473-.831.189-1.267.396-1.267 1.059 0 .454.492.909 1.173.909.852 0 1.513-.511 1.57-1.532v-.909zm3.592 2.213c0 .736.039 1.569.454 2.194h-3.82a2.609 2.609 0 0 1-.131-.927h-.039c-.794.908-1.948 1.172-3.157 1.172-1.89 0-3.461-.908-3.461-2.97 0-3.101 3.63-2.986 5.541-3.347.51-.095 1.021-.245 1.021-.869 0-.664-.625-.909-1.23-.909-1.153 0-1.381.586-1.4 1.001h-3.479c.113-2.761 2.723-3.215 5.049-3.215 4.691 0 4.652 1.948 4.652 3.84v4.03zM31.578.662h3.744v6.525l2.383-2.837h4.236l-3.498 3.706 4.046 6.109h-4.5l-2.004-3.556-.663.718v2.838h-3.744z"></path>
      <path fill="#009BDC" d="M47.331 6.827c-1.418 0-1.607 1.381-1.607 2.42 0 1.041.189 2.44 1.607 2.44s1.608-1.399 1.608-2.44c0-1.039-.19-2.42-1.608-2.42m0 7.583c-3.688 0-5.352-2.439-5.352-5.163 0-2.723 1.664-5.144 5.352-5.144 3.688 0 5.352 2.421 5.352 5.144 0 2.724-1.664 5.163-5.352 5.163M53.835 4.35h3.612v1.246h.038c.7-.983 1.702-1.493 3.196-1.493 1.76 0 3.368 1.078 3.368 3.328v6.733h-3.745V9.021c0-1.136-.131-1.929-1.229-1.929-.643 0-1.494.321-1.494 1.892v5.182h-3.746V4.35zM65.542 4.35h3.746v9.814h-3.746V4.35zm3.746-1.059h-3.746V.662h3.746v2.629zM77.419 8.15c0-.907-.683-1.646-1.646-1.646-1.117 0-1.758.586-1.93 1.646h3.576zm-3.593 1.949c.093 1.116.736 1.911 1.908 1.911.606 0 1.269-.229 1.573-.701h3.496c-.756 2.118-2.817 3.101-5.049 3.101-3.138 0-5.503-1.853-5.503-5.124 0-2.856 2.08-5.183 5.183-5.183 3.895 0 5.579 2.175 5.579 5.996h-7.187zM91.067 6.827c-1.018 0-1.859-.793-1.859-1.746 0-.993.841-1.781 1.859-1.781 1.023 0 1.849.789 1.849 1.781v1.746h-1.849z"></path>
      <path fill="#009BDC" d="M92.916.636h-6.193V6.83h2.083a2.651 2.651 0 0 1-.668-1.747c0-1.569 1.313-2.822 2.929-2.822.697 0 1.335.23 1.849.621V.636zM95.885 6.827c1.035 0 1.853-.793 1.853-1.746 0-.993-.817-1.781-1.853-1.781-1.015 0-1.844.789-1.844 1.781v1.746h1.844z"></path>
      <path fill="#009BDC" d="M94.031.636h6.194V6.83h-2.071a2.706 2.706 0 0 0 .648-1.747c0-1.569-1.305-2.822-2.922-2.822a3.04 3.04 0 0 0-1.849.621V.636zM86.722 7.955h6.193v6.195h-6.193zM94.031 7.955h6.194v6.195h-6.194z"></path>
      <g fill="#5A2572">
        <path d="M1.3 20.252h4.504c1.077 0 2.555 0 3.286.452.817.486 1.461 1.355 1.461 2.59 0 1.321-.678 2.313-1.843 2.782v.036c1.53.33 2.364 1.46 2.364 2.99 0 1.809-1.322 3.565-3.773 3.565H1.3V20.252zm1.652 5.339h3.303c1.878 0 2.644-.662 2.644-1.984 0-1.739-1.199-1.965-2.644-1.965H2.952v3.949zm0 5.685H7.09c1.443 0 2.33-.852 2.33-2.226 0-1.617-1.303-2.07-2.695-2.07H2.952v4.296zM20.567 29.815c-.401 2-1.81 3.061-3.843 3.061-2.87 0-4.226-2-4.313-4.73 0-2.712 1.773-4.677 4.225-4.677 3.182 0 4.156 2.973 4.069 5.146h-6.729c-.052 1.564.835 2.955 2.799 2.955 1.236 0 2.07-.574 2.33-1.756h1.462zm-1.426-2.503c-.087-1.408-1.114-2.539-2.592-2.539-1.531 0-2.486 1.147-2.573 2.539h5.165zM22.253 23.677h1.391v1.896h.035c.713-1.461 1.704-2.156 3.304-2.103v1.564c-2.383 0-3.252 1.338-3.252 3.635v4h-1.477v-8.992zM28.183 20.252h1.479v12.416h-1.479V20.252zM33.398 22.06H31.92v-1.808h1.478v1.808zm-1.477 1.617h1.478v8.991h-1.478v-8.991zM35.624 23.677h1.393v1.426h.035c.625-1.112 1.616-1.633 2.92-1.633 2.364 0 3.095 1.355 3.095 3.285v5.913h-1.478v-6.085c0-1.115-.696-1.81-1.825-1.81-1.791 0-2.661 1.2-2.661 2.818v5.077h-1.479v-8.991zM45.049 27.138h5.025v1.391h-5.025v-1.391zM52.387 20.252h4.503c1.078 0 2.557 0 3.286.452.817.486 1.461 1.355 1.461 2.59 0 1.321-.678 2.313-1.842 2.782v.036c1.53.33 2.364 1.46 2.364 2.99 0 1.809-1.321 3.565-3.773 3.565h-5.999V20.252zm1.651 5.339h3.305c1.879 0 2.643-.662 2.643-1.984 0-1.739-1.2-1.965-2.643-1.965h-3.305v3.949zm0 5.685h4.139c1.443 0 2.331-.852 2.331-2.226 0-1.617-1.304-2.07-2.695-2.07h-3.774v4.296zM63.984 23.677h1.392v1.896h.035c.713-1.461 1.704-2.156 3.303-2.103v1.564c-2.382 0-3.251 1.338-3.251 3.635v4h-1.479v-8.992zM77.792 32.632c-.262.157-.626.245-1.06.245-.767 0-1.253-.417-1.253-1.392-.817.975-1.913 1.392-3.165 1.392-1.634 0-2.973-.714-2.973-2.522 0-2.034 1.513-2.486 3.042-2.764 1.618-.332 3.027-.192 3.027-1.322 0-1.305-1.078-1.496-2-1.496-1.252 0-2.173.382-2.244 1.704h-1.478c.088-2.226 1.791-3.007 3.81-3.007 1.616 0 3.373.364 3.373 2.468v4.625c0 .696 0 1.008.47 1.008.139 0 .296-.035.452-.086v1.147zm-2.401-4.607c-1.147.852-4.485.017-4.485 2.226 0 .973.834 1.32 1.739 1.32 1.947 0 2.747-1.2 2.747-2.034v-1.512zM79.182 23.677h1.392v1.426h.035c.626-1.112 1.617-1.633 2.921-1.633 2.365 0 3.095 1.355 3.095 3.285v5.913h-1.478v-6.085c0-1.115-.696-1.81-1.826-1.81-1.791 0-2.661 1.2-2.661 2.818v5.077h-1.479v-8.991zM96.832 32.668h-1.478v-1.217h-.035c-.488.991-1.618 1.426-2.87 1.426-2.765 0-4.139-2.192-4.139-4.73 0-2.539 1.356-4.677 4.104-4.677.904 0 2.261.347 2.905 1.407h.035v-4.625h1.478v12.416zm-4.173-1.097c1.999 0 2.748-1.721 2.748-3.39 0-1.756-.801-3.409-2.835-3.409-2.016 0-2.695 1.722-2.695 3.478-.001 1.688.869 3.321 2.782 3.321zM106.726 29.815c-.4 2-1.808 3.061-3.843 3.061-2.868 0-4.225-2-4.312-4.73 0-2.712 1.773-4.677 4.225-4.677 3.183 0 4.156 2.973 4.069 5.146h-6.729c-.052 1.564.834 2.955 2.8 2.955 1.234 0 2.069-.574 2.329-1.756h1.461zm-1.427-2.503c-.086-1.408-1.112-2.539-2.591-2.539-1.529 0-2.486 1.147-2.573 2.539h5.164zM108.447 23.677h1.391v1.426h.035c.625-1.112 1.617-1.633 2.921-1.633 2.364 0 3.095 1.355 3.095 3.285v5.913h-1.479v-6.085c0-1.115-.694-1.81-1.824-1.81-1.792 0-2.661 1.2-2.661 2.818v5.077h-1.479v-8.991zM118.08 20.252h1.478v4.642h.034c.489-.991 1.618-1.424 2.87-1.424 2.764 0 4.138 2.19 4.138 4.729 0 2.556-1.355 4.678-4.102 4.678-.904 0-2.261-.348-2.906-1.409h-.034v1.201h-1.478V20.252zm4.174 4.521c-2 0-2.748 1.722-2.748 3.391 0 1.757.8 3.408 2.834 3.408 2.017 0 2.695-1.721 2.695-3.478.001-1.687-.87-3.321-2.781-3.321zM135.765 32.668h-1.392v-1.425h-.035c-.626 1.112-1.618 1.634-2.922 1.634-2.364 0-3.095-1.356-3.095-3.287v-5.913h1.478v6.087c0 1.113.696 1.808 1.825 1.808 1.791 0 2.662-1.2 2.662-2.816v-5.078h1.478v8.99zM137.92 23.677h1.391v1.896h.036c.713-1.461 1.703-2.156 3.304-2.103v1.564c-2.382 0-3.252 1.338-3.252 3.635v4h-1.479v-8.992zM151.468 31.902c0 2.938-1.324 4.418-4.173 4.418-1.688 0-3.636-.696-3.724-2.644h1.479c.051 1.062 1.373 1.461 2.33 1.461 1.931 0 2.694-1.392 2.694-3.409v-.591h-.035c-.503 1.096-1.651 1.634-2.797 1.634-2.68 0-4.019-2.103-4.019-4.555 0-2.123 1.027-4.747 4.156-4.747 1.131 0 2.139.503 2.677 1.495h.018v-1.288h1.394v8.226zm-1.463-3.912c0-1.583-.694-3.217-2.556-3.217-1.896 0-2.66 1.547-2.66 3.269 0 1.618.591 3.426 2.538 3.426s2.678-1.792 2.678-3.478zM153.465 27.138h5.026v1.391h-5.026v-1.391z"></path>
      </g>
      <g fill="#5A2572">
        <path d="M1.961 48.489c.052 1.322 1.217 1.737 2.417 1.737.922 0 2.174-.208 2.174-1.337 0-2.313-5.877-.749-5.877-4.208 0-1.81 1.774-2.556 3.356-2.556 2.016 0 3.547.625 3.687 2.816h-1.48c-.086-1.147-1.13-1.514-2.086-1.514-.887 0-1.914.243-1.914 1.146 0 1.045 1.565 1.254 2.939 1.566 1.479.331 2.939.836 2.939 2.556 0 2.155-2 2.834-3.826 2.834-2.018 0-3.721-.817-3.808-3.042h1.479zM15.855 45.22c-.227-1.131-.992-1.792-2.226-1.792-2.139 0-2.799 1.704-2.799 3.513 0 1.67.747 3.285 2.625 3.285 1.443 0 2.278-.815 2.469-2.188h1.514c-.33 2.207-1.687 3.493-3.966 3.493-2.747 0-4.207-1.896-4.207-4.59s1.391-4.815 4.243-4.815c2.051 0 3.652.956 3.877 3.095h-1.53zM19.088 38.908h1.479v4.746h.034c.47-1.095 1.773-1.528 2.834-1.528 2.364 0 3.094 1.355 3.094 3.287v5.91h-1.478v-6.086c0-1.112-.695-1.809-1.825-1.809-1.792 0-2.66 1.198-2.66 2.818v5.076h-1.479V38.908zM28.756 38.908h1.479v12.415h-1.479V38.908zM40.129 48.471c-.4 2-1.809 3.06-3.844 3.06-2.869 0-4.226-1.997-4.313-4.729 0-2.713 1.774-4.677 4.226-4.677 3.182 0 4.156 2.974 4.069 5.146h-6.729c-.052 1.564.833 2.954 2.8 2.954 1.234 0 2.068-.572 2.33-1.755h1.461zm-1.427-2.504c-.086-1.407-1.112-2.539-2.591-2.539-1.529 0-2.486 1.146-2.573 2.539h5.164zM42.771 48.489c.052 1.322 1.217 1.737 2.418 1.737.921 0 2.173-.208 2.173-1.337 0-2.313-5.877-.749-5.877-4.208 0-1.81 1.774-2.556 3.356-2.556 2.016 0 3.546.625 3.686 2.816H47.05c-.087-1.147-1.131-1.514-2.087-1.514-.888 0-1.913.243-1.913 1.146 0 1.045 1.565 1.254 2.938 1.566 1.478.331 2.939.836 2.939 2.556 0 2.155-2 2.834-3.826 2.834-2.017 0-3.721-.817-3.808-3.042h1.478zM52.091 40.715h-1.478v-1.808h1.478v1.808zm-1.478 1.618h1.478v8.99h-1.478v-8.99zM55.274 48.489c.051 1.322 1.216 1.737 2.416 1.737.922 0 2.174-.208 2.174-1.337 0-2.313-5.877-.749-5.877-4.208 0-1.81 1.774-2.556 3.356-2.556 2.017 0 3.547.625 3.686 2.816h-1.477c-.088-1.147-1.131-1.514-2.087-1.514-.887 0-1.912.243-1.912 1.146 0 1.045 1.564 1.254 2.938 1.566 1.477.331 2.939.836 2.939 2.556 0 2.155-2 2.834-3.826 2.834-2.018 0-3.721-.817-3.808-3.042h1.478zM69.167 45.22c-.226-1.131-.991-1.792-2.226-1.792-2.139 0-2.799 1.704-2.799 3.513 0 1.67.747 3.285 2.625 3.285 1.444 0 2.277-.815 2.47-2.188h1.513c-.331 2.207-1.687 3.493-3.965 3.493-2.748 0-4.208-1.896-4.208-4.59s1.391-4.815 4.242-4.815c2.053 0 3.652.956 3.878 3.095h-1.53zM72.4 38.908h1.479v4.746h.035c.468-1.095 1.773-1.528 2.833-1.528 2.365 0 3.096 1.355 3.096 3.287v5.91h-1.479v-6.086c0-1.112-.696-1.809-1.826-1.809-1.792 0-2.661 1.198-2.661 2.818v5.076H72.4V38.908zM89.651 48.471c-.4 2-1.809 3.06-3.843 3.06-2.869 0-4.225-1.997-4.313-4.729 0-2.713 1.774-4.677 4.226-4.677 3.181 0 4.155 2.974 4.069 5.146h-6.729c-.052 1.564.834 2.954 2.799 2.954 1.233 0 2.07-.572 2.33-1.755h1.461zm-1.426-2.504c-.087-1.407-1.114-2.539-2.591-2.539-1.531 0-2.486 1.146-2.573 2.539h5.164zM100.692 38.612c3.946 0 5.946 3.111 5.946 6.504 0 3.392-2 6.503-5.946 6.503-3.948 0-5.948-3.111-5.948-6.503.001-3.393 2-6.504 5.948-6.504zm0 11.614c3.025 0 4.295-2.606 4.295-5.11s-1.27-5.112-4.295-5.112c-3.026 0-4.296 2.608-4.296 5.112s1.27 5.11 4.296 5.11zM108.517 38.908h1.479v4.642h.034c.487-.99 1.618-1.424 2.87-1.424 2.764 0 4.138 2.19 4.138 4.728 0 2.558-1.356 4.678-4.104 4.678-.904 0-2.26-.348-2.904-1.407h-.034v1.199h-1.479V38.908zm4.172 4.52c-2 0-2.747 1.721-2.747 3.392 0 1.757.8 3.406 2.834 3.406 2.018 0 2.695-1.719 2.695-3.477.001-1.684-.868-3.321-2.782-3.321zM126.427 48.471c-.401 2-1.808 3.06-3.843 3.06-2.868 0-4.225-1.997-4.312-4.729 0-2.713 1.773-4.677 4.226-4.677 3.182 0 4.155 2.974 4.069 5.146h-6.73c-.051 1.564.835 2.954 2.799 2.954 1.235 0 2.069-.572 2.331-1.755h1.46zM125 45.967c-.087-1.407-1.113-2.539-2.591-2.539-1.53 0-2.486 1.146-2.574 2.539H125zM128.113 42.333h1.391v1.896h.035c.712-1.462 1.704-2.156 3.304-2.104v1.564c-2.382 0-3.252 1.338-3.252 3.633v4h-1.478v-8.989zM134.042 38.908h1.479v12.415h-1.479V38.908zM145.71 51.29c-.261.155-.626.241-1.062.241-.765 0-1.25-.415-1.25-1.391-.819.976-1.914 1.391-3.166 1.391-1.634 0-2.973-.711-2.973-2.521 0-2.032 1.512-2.486 3.042-2.763 1.618-.33 3.026-.192 3.026-1.323 0-1.304-1.078-1.495-2-1.495-1.252 0-2.174.384-2.243 1.704h-1.479c.087-2.227 1.792-3.007 3.808-3.007 1.617 0 3.374.364 3.374 2.468v4.626c0 .696 0 1.007.471 1.007.138 0 .294-.033.451-.086v1.149zm-2.4-4.61c-1.147.854-4.486.017-4.486 2.227 0 .972.835 1.319 1.739 1.319 1.948 0 2.747-1.2 2.747-2.033V46.68zM154.455 51.323h-1.39v-1.426h-.035c-.625 1.112-1.617 1.634-2.921 1.634-2.365 0-3.096-1.355-3.096-3.285v-5.913h1.479v6.087c0 1.114.695 1.807 1.826 1.807 1.791 0 2.661-1.2 2.661-2.814v-5.079h1.476v8.989zM157.586 48.489c.054 1.322 1.219 1.737 2.417 1.737.922 0 2.175-.208 2.175-1.337 0-2.313-5.879-.749-5.879-4.208 0-1.81 1.773-2.556 3.358-2.556 2.017 0 3.547.625 3.687 2.816h-1.48c-.087-1.147-1.13-1.514-2.085-1.514-.888 0-1.914.243-1.914 1.146 0 1.045 1.564 1.254 2.939 1.566 1.478.331 2.938.836 2.938 2.556 0 2.155-1.999 2.834-3.824 2.834-2.018 0-3.724-.817-3.808-3.042h1.476zM166.906 40.715h-1.477v-1.808h1.477v1.808zm-1.476 1.618h1.477v8.99h-1.477v-8.99zM171.201 42.333h1.79v1.306h-1.79v5.581c0 .696.191.799 1.114.799h.676v1.305h-1.13c-1.529 0-2.139-.313-2.139-1.964v-5.721h-1.529v-1.306h1.529v-2.694h1.479v2.694zM174.035 50.193l5.426-6.555h-5.077v-1.306h6.99v1.008l-5.494 6.678h5.737v1.305h-7.582v-1.13z"></path>
      </g>
    </g>
  </switch>
</svg>
